<svg xmlns="http://www.w3.org/2000/svg" xmlns:xlink="http://www.w3.org/1999/xlink" width="48" zoomAndPan="magnify" viewBox="0 0 36 36.000001" height="48" preserveAspectRatio="xMidYMid meet" version="1.0"><defs><clipPath id="f72bafb56c"><path d="M 1.988281 1.503906 L 34.097656 1.503906 L 34.097656 33.609375 L 1.988281 33.609375 Z M 1.988281 1.503906 " clip-rule="nonzero"/></clipPath></defs><g clip-path="url(#f72bafb56c)"><path fill="#bccc9a" d="M 34.097656 6.609375 L 15.78125 24.941406 L 8.972656 18.136719 L 11.238281 15.871094 L 15.78125 20.414062 L 31.835938 4.359375 Z M 30.550781 14.699219 C 30.757812 15.613281 30.886719 16.578125 30.886719 17.558594 C 30.886719 24.652344 25.140625 30.398438 18.042969 30.398438 C 10.949219 30.398438 5.199219 24.652344 5.199219 17.558594 C 5.199219 10.460938 10.949219 4.714844 18.042969 4.714844 C 20.582031 4.714844 22.925781 5.453125 24.914062 6.71875 L 27.226562 4.410156 C 24.625 2.578125 21.464844 1.503906 18.042969 1.503906 C 9.183594 1.503906 1.988281 8.695312 1.988281 17.558594 C 1.988281 26.417969 9.183594 33.609375 18.042969 33.609375 C 26.90625 33.609375 34.097656 26.417969 34.097656 17.558594 C 34.097656 15.648438 33.746094 13.816406 33.132812 12.113281 Z M 30.550781 14.699219 " fill-opacity="1" fill-rule="nonzero"/></g></svg>