<svg xmlns="http://www.w3.org/2000/svg" xmlns:xlink="http://www.w3.org/1999/xlink" width="48" zoomAndPan="magnify" viewBox="0 0 36 36.000001" height="48" preserveAspectRatio="xMidYMid meet" version="1.0"><defs><clipPath id="7df759785f"><path d="M 5.566406 0 L 29 0 L 29 34 L 5.566406 34 Z M 5.566406 0 " clip-rule="nonzero"/></clipPath><clipPath id="f962b06258"><path d="M 5.566406 14 L 23 14 L 23 34 L 5.566406 34 Z M 5.566406 14 " clip-rule="nonzero"/></clipPath><clipPath id="fa870da8ab"><path d="M 9 2 L 30.375 2 L 30.375 35 L 9 35 Z M 9 2 " clip-rule="nonzero"/></clipPath><clipPath id="dbeeda2ac6"><path d="M 8 2 L 30.375 2 L 30.375 35 L 8 35 Z M 8 2 " clip-rule="nonzero"/></clipPath></defs><g clip-path="url(#7df759785f)"><path fill="#dcf1f9" d="M 28.632812 2.636719 L 25.226562 0.679688 C 25.078125 0.570312 24.917969 0.480469 24.746094 0.40625 L 24.695312 0.378906 L 24.695312 0.382812 C 23.777344 0.0078125 22.59375 0.144531 21.304688 0.890625 L 10.816406 6.960938 C 7.929688 8.628906 5.570312 12.726562 5.570312 16.0625 L 5.570312 28.203125 C 5.570312 29.828125 6.136719 30.984375 7.042969 31.550781 L 7.035156 31.566406 L 10.820312 33.714844 L 12.949219 30 L 21.304688 25.167969 C 24.1875 23.5 26.546875 19.402344 26.546875 16.0625 L 26.546875 6.269531 Z M 28.632812 2.636719 " fill-opacity="1" fill-rule="nonzero"/><path fill="#cce6f2" d="M 28.632812 2.636719 L 24.984375 1.78125 C 24.835938 1.671875 24.09375 1.671875 23.921875 1.597656 L 23.652344 1.492188 L 23.164062 1.398438 C 22.25 1.027344 22.59375 0.144531 21.304688 0.890625 L 10.816406 6.960938 C 7.929688 8.628906 5.570312 12.726562 5.570312 16.0625 L 5.570312 28.203125 C 5.570312 29.828125 6.136719 30.984375 7.042969 31.550781 L 7.035156 31.566406 L 10.820312 33.714844 L 12.949219 30 L 21.304688 25.167969 C 24.1875 23.5 26.546875 19.402344 26.546875 16.0625 L 26.546875 6.269531 Z M 28.632812 2.636719 " fill-opacity="1" fill-rule="nonzero"/></g><g clip-path="url(#f962b06258)"><path fill="#bfd9e8" d="M 5.773438 14.316406 C 5.644531 14.910156 5.570312 15.496094 5.570312 16.0625 L 5.570312 28.203125 C 5.570312 29.828125 6.136719 30.984375 7.046875 31.550781 L 7.035156 31.566406 L 10.820312 33.714844 L 12.949219 30 L 21.304688 25.167969 C 21.792969 24.882812 22.269531 24.527344 22.71875 24.117188 Z M 5.773438 14.316406 " fill-opacity="1" fill-rule="nonzero"/></g><g clip-path="url(#fa870da8ab)"><path fill="#ffffff" d="M 14.421875 9.054688 C 11.535156 10.722656 9.175781 14.820312 9.175781 18.160156 L 9.175781 30.296875 C 9.175781 33.636719 11.535156 35 14.421875 33.332031 L 24.910156 27.261719 C 27.792969 25.59375 30.152344 21.496094 30.152344 18.160156 L 30.152344 6.019531 C 30.152344 2.683594 27.792969 1.316406 24.910156 2.984375 Z M 14.421875 9.054688 " fill-opacity="1" fill-rule="nonzero"/><path fill="#5bc0d8" d="M 30.152344 6.019531 C 30.152344 2.683594 27.792969 1.316406 24.910156 2.984375 L 14.421875 9.054688 C 11.535156 10.722656 9.175781 14.820312 9.175781 18.160156 L 9.175781 30.296875 C 9.175781 33.636719 11.535156 35 14.421875 33.332031 " fill-opacity="0.098" fill-rule="nonzero"/></g><g clip-path="url(#dbeeda2ac6)"><path fill="#ffffff" d="M 12.089844 34.261719 C 10.1875 34.261719 8.960938 32.703125 8.960938 30.296875 L 8.960938 18.160156 C 8.960938 14.742188 11.359375 10.574219 14.3125 8.867188 L 24.800781 2.796875 C 25.652344 2.304688 26.472656 2.054688 27.238281 2.054688 C 29.140625 2.054688 30.371094 3.613281 30.371094 6.019531 L 30.371094 18.160156 C 30.371094 21.574219 27.96875 25.742188 25.015625 27.449219 L 14.527344 33.519531 C 13.679688 34.011719 12.859375 34.261719 12.089844 34.261719 Z M 27.238281 2.488281 C 26.546875 2.488281 25.800781 2.71875 25.019531 3.171875 L 14.527344 9.242188 C 11.695312 10.878906 9.390625 14.878906 9.390625 18.15625 L 9.390625 30.296875 C 9.390625 32.472656 10.425781 33.828125 12.089844 33.828125 C 12.78125 33.828125 13.527344 33.597656 14.3125 33.144531 L 24.800781 27.074219 C 27.632812 25.433594 29.9375 21.433594 29.9375 18.15625 L 29.9375 6.019531 C 29.9375 3.839844 28.902344 2.488281 27.238281 2.488281 Z M 27.238281 2.488281 " fill-opacity="1" fill-rule="nonzero"/></g><path fill="#2f3638" d="M 19.910156 10.320312 C 15.972656 12.597656 12.796875 18.128906 12.808594 22.679688 C 12.816406 26.316406 14.867188 28.222656 17.703125 27.675781 C 17.746094 27.65625 17.789062 27.640625 17.824219 27.617188 C 18.089844 27.464844 18.1875 27.1875 18.1875 26.996094 C 18.1875 26.800781 18.179688 26.285156 18.175781 25.601562 C 17.90625 25.824219 17.667969 25.988281 17.457031 26.113281 C 16.085938 26.902344 15.769531 25.886719 15.769531 25.886719 C 15.445312 25.121094 14.976562 25.140625 14.976562 25.140625 C 14.355469 25.007812 14.96875 24.644531 15.019531 24.613281 C 15.023438 24.609375 15.023438 24.609375 15.023438 24.609375 C 15.738281 24.253906 16.117188 24.828125 16.117188 24.828125 C 16.476562 25.324219 16.953125 25.246094 17.378906 25 C 17.710938 24.804688 18.011719 24.507812 18.191406 24.3125 C 18.253906 23.742188 18.4375 23.273438 18.640625 22.949219 C 17.058594 23.65625 15.394531 23.914062 15.386719 20.757812 C 15.382812 19.855469 15.660156 18.960938 16.113281 18.121094 C 16.039062 17.953125 15.792969 17.261719 16.175781 15.902344 C 16.175781 15.902344 16.226562 15.851562 16.335938 15.789062 C 16.59375 15.640625 17.175781 15.414062 18.136719 15.613281 C 18.703125 15.101562 19.3125 14.65625 19.917969 14.304688 C 20.523438 13.957031 21.132812 13.695312 21.703125 13.546875 C 22.664062 12.238281 23.242188 11.792969 23.5 11.644531 C 23.605469 11.582031 23.660156 11.570312 23.660156 11.570312 C 24.050781 12.480469 23.808594 13.457031 23.734375 13.710938 C 24.191406 14.023438 24.472656 14.597656 24.472656 15.496094 C 24.484375 18.660156 22.820312 20.324219 21.230469 21.445312 C 21.488281 21.550781 21.71875 21.921875 21.722656 22.6875 C 21.722656 23.792969 21.71875 24.683594 21.71875 24.957031 C 21.71875 25.144531 21.816406 25.308594 22.082031 25.15625 C 22.121094 25.132812 22.164062 25.105469 22.210938 25.066406 C 25.03125 22.339844 27.0625 18.074219 27.054688 14.433594 C 27.042969 9.886719 23.839844 8.046875 19.910156 10.320312 " fill-opacity="1" fill-rule="nonzero"/><path fill="#000000" d="M 26.683594 12.046875 C 25.730469 9.316406 23.054688 8.5 19.910156 10.320312 C 15.972656 12.597656 12.796875 18.128906 12.808594 22.679688 C 12.816406 26.304688 14.855469 28.210938 17.675781 27.675781 L 18.1875 26.792969 C 18.183594 26.535156 18.179688 26.117188 18.175781 25.601562 C 17.90625 25.824219 17.667969 25.988281 17.457031 26.113281 C 16.085938 26.902344 15.769531 25.886719 15.769531 25.886719 C 15.445312 25.121094 14.976562 25.140625 14.976562 25.140625 C 14.355469 25.007812 14.96875 24.644531 15.019531 24.613281 C 15.023438 24.609375 15.023438 24.609375 15.023438 24.609375 C 15.738281 24.253906 16.117188 24.828125 16.117188 24.828125 C 16.476562 25.324219 16.953125 25.246094 17.378906 25 C 17.710938 24.804688 18.011719 24.507812 18.191406 24.3125 C 18.253906 23.742188 18.4375 23.273438 18.640625 22.949219 C 17.058594 23.65625 15.394531 23.914062 15.386719 20.757812 C 15.382812 19.855469 15.660156 18.960938 16.113281 18.121094 C 16.039062 17.953125 15.792969 17.261719 16.175781 15.902344 C 16.175781 15.902344 16.226562 15.851562 16.335938 15.789062 C 16.59375 15.640625 17.175781 15.414062 18.136719 15.613281 C 18.703125 15.101562 19.3125 14.65625 19.917969 14.304688 C 20.523438 13.957031 21.132812 13.695312 21.703125 13.546875 C 22.664062 12.238281 23.242188 11.792969 23.5 11.644531 C 23.605469 11.582031 23.660156 11.570312 23.660156 11.570312 C 24.050781 12.480469 23.808594 13.457031 23.734375 13.710938 C 24.191406 14.023438 24.472656 14.597656 24.472656 15.496094 C 24.476562 15.636719 24.46875 15.769531 24.460938 15.898438 Z M 26.683594 12.046875 " fill-opacity="1" fill-rule="nonzero"/><path fill="#000000" d="M 21.230469 21.441406 C 21.242188 21.445312 21.25 21.453125 21.261719 21.457031 L 21.296875 21.398438 C 21.273438 21.414062 21.253906 21.429688 21.230469 21.441406 Z M 21.230469 21.441406 " fill-opacity="1" fill-rule="nonzero"/></svg>