<svg xmlns="http://www.w3.org/2000/svg" xmlns:xlink="http://www.w3.org/1999/xlink" width="100" zoomAndPan="magnify" viewBox="0 0 75 37.5" height="50" preserveAspectRatio="xMidYMid meet" version="1.0"><defs><g/><clipPath id="191b05b871"><path d="M 2.789062 9.128906 L 21.292969 9.128906 L 21.292969 27.632812 L 2.789062 27.632812 Z M 2.789062 9.128906 " clip-rule="nonzero"/></clipPath></defs><g clip-path="url(#191b05b871)"><path fill="#bccc9a" d="M 21.292969 12.070312 L 10.734375 22.636719 L 6.8125 18.710938 L 8.117188 17.40625 L 10.734375 20.027344 L 19.988281 10.773438 Z M 19.246094 16.734375 C 19.367188 17.261719 19.441406 17.816406 19.441406 18.378906 C 19.441406 22.46875 16.128906 25.78125 12.039062 25.78125 C 7.949219 25.78125 4.636719 22.46875 4.636719 18.378906 C 4.636719 14.289062 7.949219 10.976562 12.039062 10.976562 C 13.5 10.976562 14.851562 11.402344 16 12.132812 L 17.332031 10.800781 C 15.832031 9.746094 14.011719 9.128906 12.039062 9.128906 C 6.933594 9.128906 2.789062 13.273438 2.789062 18.378906 C 2.789062 23.488281 6.933594 27.632812 12.039062 27.632812 C 17.144531 27.632812 21.292969 23.488281 21.292969 18.378906 C 21.292969 17.277344 21.085938 16.222656 20.734375 15.242188 Z M 19.246094 16.734375 " fill-opacity="1" fill-rule="nonzero"/></g><g fill="#bccc9a" fill-opacity="1"><g transform="translate(17.072981, 18.503698)"><g/></g></g><g fill="#bccc9a" fill-opacity="1"><g transform="translate(21.594722, 18.503698)"><g><path d="M 8.394531 -10.007812 L 0.875 -10.007812 L 0.875 -8.144531 L 3.703125 -8.144531 L 3.703125 0 L 5.566406 0 L 5.566406 -8.144531 L 8.394531 -8.144531 Z M 8.394531 -10.007812 "/></g></g></g><g fill="#bccc9a" fill-opacity="1"><g transform="translate(31.633986, 18.503698)"><g><path d="M 6.78125 0 L 8.730469 0 L 5.792969 -9.980469 L 5.792969 -10.007812 L 3.828125 -10.007812 L 0.875 0 L 2.839844 0 L 3.578125 -2.488281 L 6.042969 -2.488281 Z M 4.128906 -4.351562 L 4.816406 -6.679688 L 5.492188 -4.351562 Z M 4.128906 -4.351562 "/></g></g></g><g fill="#bccc9a" fill-opacity="1"><g transform="translate(42.010779, 18.503698)"><g><path d="M 5.027344 0.125 L 5.253906 0.125 C 7.40625 0.113281 8.628906 -1.289062 8.71875 -2.675781 C 8.816406 -4.128906 7.71875 -5.753906 5.066406 -6.089844 L 5.039062 -6.089844 C 4.078125 -6.203125 3.078125 -6.679688 3.128906 -7.378906 C 3.164062 -7.878906 3.914062 -8.34375 5.277344 -8.28125 L 5.316406 -8.28125 C 6.066406 -8.28125 6.96875 -7.917969 7.429688 -7.578125 L 8.503906 -9.082031 C 7.792969 -9.59375 6.542969 -10.121094 5.339844 -10.121094 C 2.6875 -10.257812 1.402344 -8.90625 1.289062 -7.53125 C 1.226562 -6.730469 1.5625 -5.941406 2.214844 -5.339844 C 2.851562 -4.753906 3.765625 -4.378906 4.839844 -4.265625 C 6.304688 -4.066406 6.917969 -3.390625 6.878906 -2.800781 C 6.84375 -2.265625 6.265625 -1.726562 5.226562 -1.726562 L 5.164062 -1.726562 C 5.152344 -1.726562 3.789062 -1.652344 2.953125 -2.339844 C 2.738281 -2.5 2.5625 -2.703125 2.402344 -2.9375 L 0.875 -1.902344 C 1.125 -1.527344 1.4375 -1.1875 1.789062 -0.902344 C 2.925781 0.0234375 4.429688 0.125 5.027344 0.125 Z M 5.027344 0.125 "/></g></g></g><g fill="#bccc9a" fill-opacity="1"><g transform="translate(52.375068, 18.503698)"><g><path d="M 6.453125 0 L 8.691406 0 L 5.140625 -5.253906 L 8.582031 -10.007812 L 6.441406 -10.007812 L 2.75 -4.929688 L 2.75 -10.007812 L 0.875 -10.007812 L 0.875 0 L 2.75 0 L 2.75 -1.976562 L 3.988281 -3.691406 Z M 6.453125 0 "/></g></g></g><g fill="#bccc9a" fill-opacity="1"><g transform="translate(62.714357, 18.503698)"><g><path d="M 5.027344 0.125 L 5.253906 0.125 C 7.40625 0.113281 8.628906 -1.289062 8.71875 -2.675781 C 8.816406 -4.128906 7.71875 -5.753906 5.066406 -6.089844 L 5.039062 -6.089844 C 4.078125 -6.203125 3.078125 -6.679688 3.128906 -7.378906 C 3.164062 -7.878906 3.914062 -8.34375 5.277344 -8.28125 L 5.316406 -8.28125 C 6.066406 -8.28125 6.96875 -7.917969 7.429688 -7.578125 L 8.503906 -9.082031 C 7.792969 -9.59375 6.542969 -10.121094 5.339844 -10.121094 C 2.6875 -10.257812 1.402344 -8.90625 1.289062 -7.53125 C 1.226562 -6.730469 1.5625 -5.941406 2.214844 -5.339844 C 2.851562 -4.753906 3.765625 -4.378906 4.839844 -4.265625 C 6.304688 -4.066406 6.917969 -3.390625 6.878906 -2.800781 C 6.84375 -2.265625 6.265625 -1.726562 5.226562 -1.726562 L 5.164062 -1.726562 C 5.152344 -1.726562 3.789062 -1.652344 2.953125 -2.339844 C 2.738281 -2.5 2.5625 -2.703125 2.402344 -2.9375 L 0.875 -1.902344 C 1.125 -1.527344 1.4375 -1.1875 1.789062 -0.902344 C 2.925781 0.0234375 4.429688 0.125 5.027344 0.125 Z M 5.027344 0.125 "/></g></g></g><g fill="#d1e8e4" fill-opacity="1"><g transform="translate(16.257161, 30.688701)"><g/></g></g><g fill="#d1e8e4" fill-opacity="1"><g transform="translate(20.007522, 30.688701)"><g/></g></g><g fill="#d1e8e4" fill-opacity="1"><g transform="translate(23.750993, 30.688701)"><g><path d="M 8.679688 -7.140625 C 8.679688 -8.730469 7.742188 -10.007812 5.179688 -10.007812 L 0.875 -10.007812 L 0.875 0 L 5.179688 0 C 7.816406 0 8.679688 -1.699219 8.679688 -3.277344 C 8.679688 -4.015625 8.480469 -4.691406 8.003906 -5.203125 C 8.492188 -5.703125 8.679688 -6.390625 8.679688 -7.140625 Z M 2.75 -8.144531 L 5.828125 -8.144531 C 6.417969 -8.144531 6.816406 -7.628906 6.816406 -7.140625 C 6.816406 -6.71875 6.480469 -6.140625 5.828125 -6.140625 L 2.75 -6.140625 Z M 5.640625 -1.875 L 2.75 -1.875 L 2.75 -4.277344 L 5.640625 -4.277344 C 6.214844 -4.277344 6.816406 -3.902344 6.816406 -3.078125 C 6.816406 -2.25 6.191406 -1.875 5.640625 -1.875 Z M 5.640625 -1.875 "/></g></g></g><g fill="#d1e8e4" fill-opacity="1"><g transform="translate(33.301916, 30.688701)"><g><path d="M 5.554688 -10.132812 C 2.726562 -10.132812 0.4375 -7.84375 0.4375 -5.015625 C 0.4375 -2.1875 2.726562 0.101562 5.554688 0.101562 C 8.378906 0.101562 10.667969 -2.1875 10.667969 -5.015625 C 10.667969 -7.84375 8.378906 -10.132812 5.554688 -10.132812 Z M 5.554688 -8.21875 C 7.328125 -8.21875 8.582031 -6.78125 8.582031 -5.015625 C 8.582031 -3.253906 7.328125 -1.8125 5.554688 -1.8125 C 3.789062 -1.8125 2.539062 -3.253906 2.539062 -5.015625 C 2.539062 -6.78125 3.789062 -8.21875 5.554688 -8.21875 Z M 5.554688 -8.21875 "/></g></g></g><g fill="#d1e8e4" fill-opacity="1"><g transform="translate(44.402997, 30.688701)"><g><path d="M 6.78125 0 L 8.730469 0 L 5.792969 -9.980469 L 5.792969 -10.007812 L 3.828125 -10.007812 L 0.875 0 L 2.839844 0 L 3.578125 -2.488281 L 6.042969 -2.488281 Z M 4.128906 -4.351562 L 4.816406 -6.679688 L 5.492188 -4.351562 Z M 4.128906 -4.351562 "/></g></g></g><g fill="#d1e8e4" fill-opacity="1"><g transform="translate(54.003927, 30.688701)"><g><path d="M 8.691406 -6.253906 C 8.691406 -8.332031 7.742188 -10.007812 5.191406 -10.007812 L 0.875 -10.007812 L 0.875 0 L 2.75 0 L 2.75 -2.488281 L 5.191406 -2.488281 C 5.417969 -2.488281 5.628906 -2.5 5.828125 -2.527344 L 6.730469 0 L 8.691406 0 L 7.554688 -3.203125 C 8.378906 -3.890625 8.691406 -5.003906 8.691406 -6.253906 Z M 2.75 -4.367188 L 2.75 -8.144531 L 5.191406 -8.144531 C 6.117188 -8.144531 6.367188 -7.832031 6.453125 -7.730469 C 6.691406 -7.429688 6.816406 -6.90625 6.816406 -6.253906 C 6.816406 -5.566406 6.691406 -5.039062 6.464844 -4.765625 C 6.253906 -4.492188 5.828125 -4.367188 5.191406 -4.367188 Z M 2.75 -4.367188 "/></g></g></g><g fill="#d1e8e4" fill-opacity="1"><g transform="translate(63.567351, 30.688701)"><g><path d="M 4.152344 -10.007812 L 0.875 -10.007812 L 0.875 0 L 4.152344 0 C 6.792969 0 8.667969 -2.238281 8.667969 -5.003906 C 8.667969 -7.769531 6.71875 -10.007812 4.152344 -10.007812 Z M 4.152344 -8.144531 C 5.640625 -8.144531 6.804688 -6.765625 6.804688 -5.003906 C 6.804688 -4.101562 6.527344 -3.289062 6.003906 -2.703125 C 5.667969 -2.3125 5.078125 -1.863281 4.152344 -1.863281 L 2.738281 -1.863281 L 2.738281 -8.144531 Z M 4.152344 -8.144531 "/></g></g></g></svg>